<svg xmlns="http://www.w3.org/2000/svg" xmlns:xlink="http://www.w3.org/1999/xlink" width="1280" height="692" viewBox="0 0 1280 692">
  <defs>
    <clipPath id="clip-path">
      <rect id="Rect치ngulo_41" data-name="Rect치ngulo 41" width="1280" height="692" fill="none"/>
    </clipPath>
    <radialGradient id="radial-gradient" cx="640" cy="346" r="1006.065" gradientTransform="translate(294 194.317) scale(0.541 0.438)" gradientUnits="userSpaceOnUse">
      <stop offset="0.059" stop-color="#001256"/>
      <stop offset="0.963" stop-color="#00092b"/>
    </radialGradient>
    <radialGradient id="radial-gradient-2" cx="344.886" cy="186.454" r="637.939" gradientTransform="translate(158.432 131.958) scale(0.541 0.292)" gradientUnits="userSpaceOnUse">
      <stop offset="0.059" stop-color="#001256"/>
      <stop offset="0.237" stop-color="#001153" stop-opacity="0.945"/>
      <stop offset="0.443" stop-color="#00104c" stop-opacity="0.78"/>
      <stop offset="0.664" stop-color="#000d40" stop-opacity="0.51"/>
      <stop offset="0.892" stop-color="#000a30" stop-opacity="0.133"/>
      <stop offset="0.963" stop-color="#00092b" stop-opacity="0"/>
    </radialGradient>
    <radialGradient id="radial-gradient-3" cx="269.004" cy="269.004" r="277.301" gradientTransform="translate(277.301 -114.862) rotate(45)" gradientUnits="userSpaceOnUse">
      <stop offset="0.059" stop-color="#430056"/>
      <stop offset="0.237" stop-color="#410053" stop-opacity="0.945"/>
      <stop offset="0.443" stop-color="#3b004c" stop-opacity="0.78"/>
      <stop offset="0.664" stop-color="#320040" stop-opacity="0.51"/>
      <stop offset="0.892" stop-color="#250030" stop-opacity="0.133"/>
      <stop offset="0.963" stop-color="#21002b" stop-opacity="0"/>
    </radialGradient>
    <radialGradient id="radial-gradient-4" cx="269.004" cy="269.004" r="277.301" gradientTransform="translate(277.301 -114.862) rotate(45)" xlink:href="#radial-gradient-2"/>
    <radialGradient id="radial-gradient-5" cx="498.369" cy="269.431" r="921.839" gradientTransform="translate(228.938 190.683) scale(0.541 0.292)" xlink:href="#radial-gradient-3"/>
    <radialGradient id="radial-gradient-6" cx="498.369" cy="269.431" r="921.839" gradientTransform="translate(228.938 190.683) scale(0.541 0.292)" xlink:href="#radial-gradient-2"/>
    <radialGradient id="radial-gradient-7" cx="615.558" cy="439.48" r="1460.726" gradientTransform="translate(386.669 261.014) scale(0.476 0.257)" xlink:href="#radial-gradient-2"/>
    <radialGradient id="radial-gradient-8" cx="909.495" cy="259.651" r="2170.61" gradientTransform="translate(584.818 250.77) scale(0.345 0.187)" xlink:href="#radial-gradient-2"/>
    <radialGradient id="radial-gradient-9" cx="700.59" cy="474.502" r="878.391" gradientTransform="translate(225.216 171.226) scale(0.513 0.277)" xlink:href="#radial-gradient-3"/>
    <radialGradient id="radial-gradient-10" cx="344.273" cy="219.992" r="816.56" gradientTransform="translate(197.35 175.703) scale(0.561 0.303)" xlink:href="#radial-gradient-3"/>
  </defs>
  <g id="Grupo_104" data-name="Grupo 104" transform="translate(-10.22 -23.431)">
    <g id="Grupo_103" data-name="Grupo 103" transform="translate(10.22 23.431)" clip-path="url(#clip-path)">
      <g id="Grupo_100" data-name="Grupo 100">
        <g id="Grupo_99" data-name="Grupo 99">
          <g id="Grupo_98" data-name="Grupo 98">
            <rect id="Rect치ngulo_40" data-name="Rect치ngulo 40" width="1280" height="692" fill="url(#radial-gradient)"/>
          </g>
        </g>
      </g>
      <g id="Grupo_101" data-name="Grupo 101" transform="translate(-283.806 -345.827)">
        <ellipse id="Elipse_17" data-name="Elipse 17" cx="344.885" cy="186.454" rx="344.885" ry="186.454" transform="translate(1143.256 242.832)" opacity="0.5" fill="url(#radial-gradient-2)"/>
        <path id="Trazado_110" data-name="Trazado 110" d="M189.788,3.335c146.725,43.75,301.136,198.16,344.885,344.885s-39.728,230.2-186.454,186.454S47.084,336.514,3.335,189.788,43.063-40.415,189.788,3.335Z" transform="translate(0 442.449) rotate(-45)" opacity="0.5" fill="url(#radial-gradient-3)"/>
        <path id="Trazado_111" data-name="Trazado 111" d="M189.788,3.335c146.725,43.75,301.136,198.16,344.885,344.885s-39.728,230.2-186.454,186.454S47.084,336.514,3.335,189.788,43.063-40.415,189.788,3.335Z" transform="translate(17.913 948.477) rotate(-45)" opacity="0.5" fill="url(#radial-gradient-4)"/>
        <ellipse id="Elipse_20" data-name="Elipse 20" cx="498.369" cy="269.431" rx="498.369" ry="269.431" transform="translate(878.605 649.923)" opacity="0.5" fill="url(#radial-gradient-5)"/>
        <ellipse id="Elipse_21" data-name="Elipse 21" cx="498.369" cy="269.431" rx="498.369" ry="269.431" transform="translate(410.212 415.814)" opacity="0.5" fill="url(#radial-gradient-6)"/>
      </g>
      <g id="Grupo_102" data-name="Grupo 102" transform="translate(-340.056 -99.77)">
        <path id="Trazado_106" data-name="Trazado 106" d="M-100.492,406.473C209.022,285.4,543.5,180.308,906.241,115.49c67.43-12.049,136.174-22.738,206.812-26.7,50.837-2.851,112.417.919,136.294,25.351,8.584,8.784,10.675,19.074,9.26,28.978-5.919,41.364-66.865,73.32-123.348,101.4-75.8,37.689-150.8,75.972-231.811,110.35C820.806,389.947,732,420.916,654.547,459.29S510.137,545.015,486.4,600.345c-4.91,11.443-6.623,25.269,9.533,33.125,16.94,8.236,43.356,5.179,65.078,1.46C800.449,593.937,1029.643,531.6,1278.4,512.873c16.683-1.257,34.616-2.2,49.538,2.022,30.467,8.628,30.088,32.5,18.542,50.014-19.407,29.436-57.144,54.24-97.178,76.784-98.081,55.233-213.381,100.52-328,145.492-7.137-19.433-55.181-23.095-91.725-21.625-96.812,3.895-192.986,12.413-287.037,25.423-13.553-14.819,14.149-30.512,38.8-40.3q133.786-53.121,267.576-106.239c-160.22,1.167-308.019,45.536-465.6,61.245-33.894,3.38-69,5.407-102.659,1.4s-65.953-14.9-80.847-31.7c-14.748-16.637-10.524-36.727,3.246-53.608s36.124-31.216,58.179-45.294c93.253-59.526,199.744-117.146,283.085-180.6,13.345-10.159,23.967-22.037,23.306-34.493-.253-4.8-2.381-9.771-8.143-13.426-12.534-7.952-35.978-6.563-54.008-2.8-61.064,12.736-124.137,35.188-174.321,57.54C263.466,432.857,186.858,458.7,112.062,483.3c-32.689,10.754-66.688,21.3-104.346,24.974s-80.177-.761-105.725-16.161c-33.132-19.971-28.119-50.984-12.275-76.407,18.522-29.721,49.129-57.223,89.027-79.992" transform="translate(122.615 101.125)" opacity="0.5" fill="url(#radial-gradient-7)"/>
        <path id="Trazado_107" data-name="Trazado 107" d="M1783.935,314.613C1633.691,368.09,1497.02,432.3,1344.14,483.548s-328.348,89.77-507.891,83.8a50.774,50.774,0,0,1-10.65-1.118c-17.4-4.468-4.27-18.656,9.979-25.668,101.089-49.742,193.713-104.514,276.311-163.4,40.246-28.69,78.172-58.478,109.8-90.211,13.929-13.977,82.012-84,13.379-88.5-32.338-2.12-77.02,7.8-103.265,17.347-44.941,16.352-79.455,39.584-114.767,61.793-74.683,46.97-155.981,90.867-242.959,131.182-29.322,13.591-59.689,26.915-94.656,35.778-7.524,1.907-15.885,3.634-23.967,2.588-24.676-3.193-16.673-23.448-1.833-34.574,41.044-30.775,91.968-57.295,135.711-86.962s-59.7-2.5-52.856-40.258C740.179,264.9,872.846,180.186,841.591,168.5,805,154.824,754.9,162.894,714.776,173.283c-113.864,29.485-211.976,73.69-314.7,113.369S185.1,362.59,60.146,372.348c-9.359.731-19.338,1.262-27.9-.913-23.987-6.1-16.878-25.514-4.278-38.122C71,290.258,133.866,254.135,196,218.548L486.1,52.41C531.567,26.368,577.583.076,632.93-19.6S754.669-52.016,820.466-47.876l-252.035,153.6c-20.477,12.48-42.435,28.5-32.374,44.271,63.485,2.086,120.881-18.316,175.862-35.6C789.777,89.913,872.777,70.215,958.808,55.8c21.307-3.571,49.367-5.619,61.54,4.488,8.553,7.1,3.966,16.557-2.24,24.339-49.439,62-180.137,99.172-214.4,164.094-2.885,5.468-4.915,11.574-.174,16.651,11.179,11.972,44.549,7.461,66.13.847,119.642-36.67,224.4-85.75,336.855-128.554S1443.8,57.456,1580.494,49.272c54.3-3.251,119.188,1.158,146.458,26.751,29.271,27.471-2.061,61.805-35.912,87.693-63.5,48.567-138.135,92.876-221.65,131.589-57.569,26.686-120.42,51.359-162.24,85.559-15.339,12.546-27.837,26.786-27.991,41.824s14.646,30.854,40.553,36.329c14.011,2.96,29.594,2.7,44.557,1.863,127.14-7.112,239.414-51.939,366.753-57.922,21.268-1,45.312-.324,60.014,8.045,15.421,8.78,14.321,23.312,3.315,33.857s-29.752,17.97-48.22,24.821c-112.13,41.6-235.272,74.509-364.5,97.416" transform="translate(339.431 48.657)" opacity="0.5" fill="url(#radial-gradient-8)"/>
        <path id="Trazado_108" data-name="Trazado 108" d="M948.188,237.632c-188.4,91.24-401.446,167.247-581.381,263.352C300.49,536.4,235.039,579.933,238.646,630.294c.238,3.3.878,6.755,4.27,9.5,7.319,5.925,23.27,5.885,36.27,4.714,163-14.681,279.887-100.317,442.563-116.017,1.608,12.69-16.747,23.239-33.572,32.131-75.2,39.743-149.448,84.576-171.251,140.2-1.111,2.836-1.894,6.116,1.523,8.35,3.858,2.519,10.965,2.4,16.96,1.953,87.24-6.448,165.041-33.425,230.482-65.275s121.382-69,185.459-101.645c72.563-36.972,156.462-68.75,211.326-113.763-15.263-5.414-36.014-4.261-52.224.278s-28.915,11.948-41.418,19.139q-99.79,57.4-211.366,108.317C829.1,571.208,798.51,584.3,761.961,588.534c70.234-53.035,178.155-91.752,226.473-151.519,3.753-4.643,7.127-9.961,3.6-14.655-3.213-4.271-11.356-6.836-19.415-8.347-31.217-5.853-65.7-.346-95.836,6.982-93.023,22.624-173.373,62.955-274.189,71.342-14.589,1.214-33.889.14-37.809-7.552-2-3.925,1.2-8.034,4.669-11.648,33.794-35.217,96.773-58.914,155.517-82.693,82.888-33.552,164.2-71.63,208.151-122.315,6.193-7.139,11.612-15.461,5.855-22.706s-28.091-9.955-34.34-2.832" transform="translate(685.959 158.592)" opacity="0.5" fill="url(#radial-gradient-9)"/>
        <path id="Trazado_109" data-name="Trazado 109" d="M733.921,32.8C638.466,91.709,588,184.366,471.362,230.815c-16.026,6.38-32.911,12.632-52.273,15.124s-41.907.48-55.035-7.606c-13.076-8.058-13.957-19.988-10.552-30.546C369.072,159.5,454.64,126.062,481.469,79.243c5.545-9.681,7.276-21.776-6.817-28.458-11.031-5.229-27.64-4.989-41.915-3.164-46.572,5.955-83.174,24.721-119.007,41.87q-59.412,28.433-124.191,53.346c-17.446,6.707-40.072,13.436-58.982,8.013,14.715-20.641,42.719-37.558,70.09-54,50.778-30.5,101.765-61.379,139.579-96.96,10.437-9.821,19.976-21.8,11.133-32.074-28.69-.444-54.444,8.931-77.13,18.435C155.834,35.855,60.054,99.188-34.625,161.936-58.707,177.9-83.142,194.175-97.4,213.275c-5.481,7.345-9.421,15.31-7.275,23.145s11.517,15.477,25.528,17.787c8.522,1.4,17.743.75,26.376-.444,45.115-6.243,78.82-25.843,112.389-43.294A1055.428,1055.428,0,0,1,167.643,162.08c25.308-9.728,55.831-19.2,85.757-14.719-12.544,12.571-35.489,20.873-55.058,30.472s-37.366,22.716-33.795,36.868a10.929,10.929,0,0,0,6.5,7.557c7.941,3.58,19.953,1.311,28.959-1.438,58.97-18,98.5-49.56,145.229-76.058,11.244-6.375,25.272-12.958,41.485-12.092-20.36,33.388-63.931,61.051-109.46,86.151C182.783,270.909,74.987,316.375-7.092,374.283c-24.842,17.526-47.852,37.111-51.512,59.1-1.585,9.526.968,19.729,11.84,27.276,23.283,16.164,69.919,12.662,105.457,5.554,106.381-21.275,197.586-60.138,280.143-102.188,170.222-86.7,311.946-189.712,416.581-302.789,9.9-10.7,20.211-21.964,38.395-28.779Z" transform="translate(149.678 54.977)" opacity="0.5" fill="url(#radial-gradient-10)"/>
      </g>
    </g>
  </g>
</svg>
